<?xml version="1.0" standalone="no"?>
<!DOCTYPE svg PUBLIC "-//W3C//DTD SVG 20010904//EN"
 "http://www.w3.org/TR/2001/REC-SVG-20010904/DTD/svg10.dtd">
<svg version="1.0" xmlns="http://www.w3.org/2000/svg"
 width="500.000000pt" height="500.000000pt" viewBox="0 0 500.000000 500.000000"
 preserveAspectRatio="xMidYMid meet">
<metadata>
Created by potrace 1.11, written by Peter Selinger 2001-2013
</metadata>
<g transform="translate(0.000000,500.000000) scale(0.100000,-0.100000)"
fill="#000000" stroke="none">
<path d="M0 2500 l0 -2500 2500 0 2500 0 0 2500 0 2500 -2500 0 -2500 0 0
-2500z m4024 1942 c-45 -36 -1323 -1216 -1321 -1219 2 -1 49 18 105 43 135 60
229 77 392 70 440 -19 777 -271 904 -676 82 -258 72 -548 -30 -858 -210 -642
-809 -1120 -1539 -1227 -239 -35 -530 -29 -741 15 -688 143 -1051 679 -915
1347 59 290 241 666 472 976 152 203 300 357 912 946 l622 600 580 0 c551 1
579 0 559 -17z"/>
<path d="M2464 2570 c-205 -54 -415 -219 -523 -411 -70 -126 -102 -285 -82
-406 55 -319 367 -494 699 -391 229 70 428 244 526 460 46 100 60 167 60 273
-1 232 -146 422 -368 481 -73 20 -226 17 -312 -6z"/>
</g>
</svg>
